<svg width="183" height="128" viewBox="0 0 183 128" fill="none" xmlns="http://www.w3.org/2000/svg">
<path d="M165.706 78.864V79.056C165.655 79.1645 165.594 79.269 165.523 79.3677L165.26 79.6554L164.998 79.8713C164.724 80.0839 164.414 80.254 164.08 80.3747H163.949C163.623 80.4936 163.277 80.5586 162.926 80.5667H152.435C152.155 80.575 151.877 80.5278 151.619 80.4286C151.361 80.3291 151.129 80.1799 150.94 79.9911L139.479 69.1531L131.951 79.6074L131.794 79.7992L131.532 80.0869H131.401H131.269H131.086C130.876 80.251 130.636 80.3808 130.378 80.4707L130.115 80.5905C129.786 80.7001 129.442 80.7647 129.093 80.7823H118.601C118.322 80.7906 118.043 80.7436 117.785 80.6442C117.527 80.545 117.296 80.3957 117.106 80.2068L113.199 76.1068L99.4553 80.5905C99.1339 80.7228 98.7847 80.7882 98.4324 80.7823C97.9562 80.7943 97.4909 80.6495 97.1212 80.3747L96.9111 80.1829L90.3543 73.3252C90.092 74.1405 89.8822 74.9558 89.5938 75.7231L89.4365 76.0588C89.3911 76.1698 89.3293 76.2747 89.2528 76.3704L89.0955 76.5622L88.8069 76.85L88.4398 77.1618C88.2369 77.304 88.0169 77.4247 87.784 77.5215L87.0235 78.3845C86.6627 78.5082 86.281 78.573 85.8956 78.5765H77.2931C77.0149 78.5894 76.7371 78.5467 76.479 78.4515C76.2208 78.3562 75.9883 78.2108 75.7982 78.0249L72.9656 75.0518L71.7327 78.7921C71.7035 78.9195 71.6502 79.0412 71.5754 79.152L71.4179 79.4636L71.2606 79.6554L70.9986 79.9432C70.8892 80.0592 70.7659 80.1637 70.6312 80.2548C70.4132 80.3889 70.1853 80.5089 69.9493 80.6144L69.6084 80.7823C69.2572 80.9109 68.8847 80.984 68.5067 80.9982H52.9275C52.6434 81.0099 52.3598 80.9646 52.0971 80.8651C51.8341 80.7657 51.5984 80.6146 51.4064 80.4227L49.1246 78.0249H40.863L40.6794 78.6004C40.6476 78.7237 40.6036 78.844 40.5482 78.96C40.477 79.0588 40.4156 79.1631 40.3646 79.2717L40.2073 79.4636L39.945 79.7514C39.8356 79.8674 39.7125 79.9719 39.5779 80.063C39.3598 80.1969 39.1319 80.3172 38.8958 80.4227L38.5548 80.5905C38.2039 80.7191 37.8313 80.792 37.4533 80.8064H27.723C27.443 80.8147 27.1646 80.7675 26.9064 80.6683C26.6485 80.5689 26.4169 80.4196 26.228 80.2309L23.2118 77.0897H14.2157C13.9376 77.1027 13.6599 77.0602 13.4017 76.965C13.1435 76.8696 12.9111 76.724 12.7208 76.5383L0.472478 64.4055C0.570563 64.496 0.686182 64.5694 0.813448 64.6214C0.586602 64.4983 0.39723 64.3251 0.262692 64.1178C0.0900756 63.8098 0 63.4688 0 63.1227C0 62.7766 0.0900756 62.4356 0.262692 62.1276C7.18992 49.119 12.8677 35.5845 17.2319 21.6772V21.5093L16.3664 20.5981C16.3664 20.5981 16.4976 20.5981 16.5762 20.766C16.286 20.5224 16.0813 20.2056 15.9879 19.8556C15.8946 19.5057 15.9168 19.1383 16.0517 18.7998L18.9105 10.024C19.1491 9.36172 19.5986 8.77967 20.2014 8.35248C20.8042 7.92528 21.5328 7.6724 22.2938 7.62621H32.7849L34.4896 2.39904C34.7314 1.73847 35.1818 1.15819 35.7839 0.73144C36.3861 0.304686 37.1131 0.0505873 37.8729 0.00127038H47.6822C47.9737 -0.00910705 48.2639 0.0442141 48.5283 0.156802C48.793 0.26939 49.0242 0.438014 49.2033 0.64868L52.5604 4.17342L52.8227 3.52601C53.0598 2.85839 53.5125 2.27203 54.1209 1.84406C54.7296 1.41608 55.4658 1.16652 56.2324 1.12823H90.8789C91.1695 1.12347 91.4577 1.17931 91.7213 1.29148C91.9847 1.40365 92.217 1.56922 92.4002 1.77564L102.891 12.8294L102.708 3.62194C102.722 3.21633 102.827 2.81773 103.017 2.45072C103.206 2.0837 103.476 1.75603 103.809 1.48788C104.443 0.885784 105.308 0.533176 106.222 0.50482H116.713C117.049 0.495364 117.382 0.568168 117.677 0.715708C117.972 0.863247 118.219 1.08015 118.392 1.34402C118.346 1.24771 118.284 1.15866 118.208 1.08026L126.076 9.25668L127.414 5.15652C127.646 4.49078 128.094 3.90517 128.698 3.47705C129.302 3.04894 130.034 2.79847 130.797 2.75874H169.09C169.382 2.7474 169.674 2.7977 169.943 2.90577C170.211 3.01387 170.448 3.17684 170.637 3.38213L182.597 15.9225L182.754 16.0904C182.882 16.2708 182.963 16.476 182.99 16.6898C182.99 16.6898 182.99 16.6898 182.99 16.8097C183.003 16.9853 183.003 17.1616 182.99 17.3372C182.999 17.4729 182.999 17.6091 182.99 17.7448L170.952 54.4069L170.794 54.7665L170.611 55.0782C170.611 55.0782 170.611 55.1981 170.453 55.2699L170.191 55.5577L169.798 55.8695C169.588 56.0133 169.352 56.1093 169.142 56.2292C168.932 56.3491 168.906 56.373 168.801 56.3971C168.445 56.5394 168.062 56.6129 167.673 56.6127H162.428L164.5 58.7708V58.9386C164.633 59.1606 164.713 59.4056 164.736 59.6579L165.89 77.7371V78.3845C165.89 78.3845 165.89 78.3845 165.89 78.5524C165.89 78.7203 165.706 78.7922 165.706 78.864Z" fill="black"/>
<path d="M20.5938 114.938L28.1758 101.215H20.8867V99.2344H30.918V101.262L23.3359 114.926L31.8203 114.914C31.7891 115.195 31.7109 115.461 31.5859 115.711C31.4688 115.961 31.3164 116.184 31.1289 116.379C30.9492 116.566 30.7422 116.719 30.5078 116.836C30.2734 116.945 30.0273 117 29.7695 117H20.5938V114.938ZM34.5156 104.73H37.3164V114.996H42.1562V104.73H44.9453V114.996H47.3242C47.293 115.27 47.2148 115.531 47.0898 115.781C46.9727 116.023 46.8203 116.234 46.6328 116.414C46.4531 116.594 46.2461 116.738 46.0117 116.848C45.7773 116.949 45.5312 117 45.2734 117H43.0703L42.1562 115.512C42.0703 115.73 41.9609 115.934 41.8281 116.121C41.6953 116.301 41.543 116.457 41.3711 116.59C41.207 116.715 41.0312 116.816 40.8438 116.895C40.6641 116.965 40.4883 117 40.3164 117H36.7422C36.4375 117 36.1484 116.922 35.875 116.766C35.6016 116.609 35.3633 116.398 35.1602 116.133C34.9648 115.859 34.8086 115.543 34.6914 115.184C34.5742 114.824 34.5156 114.438 34.5156 114.023V104.73ZM49.4688 107.707C49.4688 107.293 49.5273 106.906 49.6445 106.547C49.7617 106.188 49.918 105.875 50.1133 105.609C50.3164 105.336 50.5547 105.121 50.8281 104.965C51.1016 104.809 51.3906 104.73 51.6953 104.73H59.8984V114.996H62.3711C62.3398 115.27 62.2617 115.531 62.1367 115.781C62.0195 116.023 61.8672 116.234 61.6797 116.414C61.5 116.594 61.293 116.738 61.0586 116.848C60.8242 116.949 60.5781 117 60.3203 117H59.8984V120.34C59.8984 120.754 59.8398 121.141 59.7227 121.5C59.6055 121.867 59.4453 122.184 59.2422 122.449C59.0391 122.723 58.8047 122.938 58.5391 123.094C58.2734 123.258 57.9883 123.34 57.6836 123.34H52V121.312H57.0977V115.699C56.8711 116.105 56.5938 116.426 56.2656 116.66C55.9375 116.887 55.5938 117 55.2344 117H51.6953C51.3906 117 51.1016 116.922 50.8281 116.766C50.5547 116.609 50.3164 116.398 50.1133 116.133C49.918 115.859 49.7617 115.543 49.6445 115.184C49.5273 114.824 49.4688 114.438 49.4688 114.023V107.707ZM57.0977 114.996V106.734H52.2578V114.996H57.0977ZM64.4219 107.707C64.4219 107.293 64.4805 106.906 64.5977 106.547C64.7148 106.18 64.8711 105.863 65.0664 105.598C65.2695 105.324 65.5039 105.113 65.7695 104.965C66.0352 104.809 66.3203 104.73 66.625 104.73H76.4453C76.4141 105.004 76.3359 105.266 76.2109 105.516C76.0938 105.758 75.9414 105.969 75.7539 106.148C75.5742 106.328 75.3672 106.473 75.1328 106.582C74.8984 106.684 74.6523 106.734 74.3945 106.734H73.6562C73.8047 106.844 73.9492 106.984 74.0898 107.156C74.2383 107.328 74.3672 107.527 74.4766 107.754C74.5938 107.98 74.6836 108.23 74.7461 108.504C74.8164 108.77 74.8516 109.059 74.8516 109.371V114.047C74.8516 114.453 74.793 114.836 74.6758 115.195C74.5586 115.555 74.3984 115.867 74.1953 116.133C73.9922 116.398 73.7539 116.609 73.4805 116.766C73.2148 116.922 72.9297 117 72.625 117H66.625C66.3203 117 66.0352 116.922 65.7695 116.766C65.5039 116.609 65.2695 116.398 65.0664 116.133C64.8711 115.867 64.7148 115.555 64.5977 115.195C64.4805 114.836 64.4219 114.453 64.4219 114.047V107.707ZM72.0508 114.996V106.734H67.2227V114.996H72.0508ZM80.6055 101.895C80.332 101.895 80.0742 101.844 79.832 101.742C79.5977 101.641 79.3906 101.5 79.2109 101.32C79.0312 101.141 78.8906 100.934 78.7891 100.699C78.6875 100.457 78.6367 100.199 78.6367 99.9258C78.6367 99.6523 78.6875 99.3984 78.7891 99.1641C78.8906 98.9219 79.0312 98.7109 79.2109 98.5312C79.3906 98.3516 79.5977 98.2109 79.832 98.1094C80.0742 98 80.332 97.9453 80.6055 97.9453C80.8789 97.9453 81.1328 98 81.3672 98.1094C81.6094 98.2109 81.8203 98.3516 82 98.5312C82.1797 98.7109 82.3203 98.9219 82.4219 99.1641C82.5312 99.3984 82.5859 99.6523 82.5859 99.9258C82.5859 100.199 82.5312 100.457 82.4219 100.699C82.3203 100.934 82.1797 101.141 82 101.32C81.8203 101.5 81.6094 101.641 81.3672 101.742C81.125 101.844 80.8711 101.895 80.6055 101.895ZM79.2344 104.73H82.0352V114.996H84.543C84.5195 115.27 84.4453 115.531 84.3203 115.781C84.2031 116.023 84.0508 116.234 83.8633 116.414C83.6836 116.594 83.4766 116.738 83.2422 116.848C83.0078 116.949 82.7617 117 82.5039 117H81.4727C81.168 117 80.8789 116.922 80.6055 116.766C80.332 116.609 80.0938 116.398 79.8906 116.133C79.6875 115.859 79.5273 115.543 79.4102 115.184C79.293 114.824 79.2344 114.438 79.2344 114.023V104.73ZM95.3008 117C95.332 116.727 95.4062 116.469 95.5234 116.227C95.6484 115.984 95.8008 115.773 95.9805 115.594C96.168 115.406 96.3789 115.262 96.6133 115.16C96.8477 115.051 97.0938 114.996 97.3516 114.996H101.652V112.148L95.5117 109.09C95.043 108.855 94.668 108.5 94.3867 108.023C94.1055 107.547 93.9648 106.953 93.9648 106.242V102.211C93.9648 101.797 94.0195 101.41 94.1289 101.051C94.2461 100.684 94.4023 100.367 94.5977 100.102C94.8008 99.8281 95.0352 99.6172 95.3008 99.4688C95.5664 99.3125 95.8516 99.2344 96.1562 99.2344H102.637C102.941 99.2344 103.227 99.3125 103.492 99.4688C103.758 99.6172 103.988 99.8281 104.184 100.102C104.387 100.367 104.547 100.684 104.664 101.051C104.781 101.41 104.84 101.797 104.84 102.211V105.68H102.039V101.238H96.7656V106.793L103.117 110.039C103.32 110.141 103.504 110.281 103.668 110.461C103.832 110.641 103.973 110.852 104.09 111.094C104.207 111.328 104.297 111.59 104.359 111.879C104.422 112.168 104.453 112.469 104.453 112.781V114.047C104.453 114.453 104.395 114.836 104.277 115.195C104.16 115.555 104 115.867 103.797 116.133C103.602 116.398 103.371 116.609 103.105 116.766C102.84 116.922 102.555 117 102.25 117H95.3008ZM109.188 104.73H111.988V114.996H116.828V104.73H119.617V114.996H121.996C121.965 115.27 121.887 115.531 121.762 115.781C121.645 116.023 121.492 116.234 121.305 116.414C121.125 116.594 120.918 116.738 120.684 116.848C120.449 116.949 120.203 117 119.945 117H117.742L116.828 115.512C116.742 115.73 116.633 115.934 116.5 116.121C116.367 116.301 116.215 116.457 116.043 116.59C115.879 116.715 115.703 116.816 115.516 116.895C115.336 116.965 115.16 117 114.988 117H111.414C111.109 117 110.82 116.922 110.547 116.766C110.273 116.609 110.035 116.398 109.832 116.133C109.637 115.859 109.48 115.543 109.363 115.184C109.246 114.824 109.188 114.438 109.188 114.023V104.73ZM127.738 104.027H130.551C130.48 104.199 130.426 104.371 130.387 104.543C130.355 104.707 130.332 104.844 130.316 104.953C130.293 105.242 130.34 105.504 130.457 105.738C130.574 105.973 130.73 106.199 130.926 106.418C131.129 106.629 131.359 106.84 131.617 107.051C131.883 107.262 132.152 107.484 132.426 107.719C132.738 107.969 133.055 108.258 133.375 108.586C133.695 108.906 133.984 109.262 134.242 109.652C134.5 110.035 134.707 110.445 134.863 110.883C135.027 111.312 135.102 111.762 135.086 112.23C135.07 112.559 135 112.875 134.875 113.18C134.75 113.477 134.586 113.746 134.383 113.988C134.18 114.223 133.941 114.426 133.668 114.598C133.402 114.77 133.121 114.895 132.824 114.973H137.184C137.074 115.277 136.941 115.555 136.785 115.805C136.637 116.047 136.465 116.258 136.27 116.438C136.082 116.617 135.875 116.758 135.648 116.859C135.422 116.953 135.188 117 134.945 117H131.734C131.375 117 131.074 116.945 130.832 116.836C130.598 116.719 130.41 116.566 130.27 116.379C130.137 116.191 130.043 115.977 129.988 115.734C129.941 115.484 129.93 115.227 129.953 114.961C130.203 114.93 130.449 114.863 130.691 114.762C130.934 114.66 131.148 114.516 131.336 114.328C131.531 114.133 131.691 113.891 131.816 113.602C131.949 113.312 132.031 112.965 132.062 112.559C132.094 112.238 132.062 111.938 131.969 111.656C131.875 111.375 131.75 111.109 131.594 110.859C131.438 110.609 131.258 110.371 131.055 110.145C130.852 109.918 130.652 109.699 130.457 109.488C130.254 109.223 130.051 108.902 129.848 108.527C129.645 108.152 129.5 107.695 129.414 107.156L125.711 117H122.816L127.738 104.027ZM138.977 98.3672H141.777V106.066C141.996 105.645 142.266 105.316 142.586 105.082C142.914 104.848 143.27 104.73 143.652 104.73H147.18C147.484 104.73 147.77 104.809 148.035 104.965C148.309 105.121 148.547 105.336 148.75 105.609C148.953 105.875 149.113 106.188 149.23 106.547C149.348 106.906 149.406 107.293 149.406 107.707V114.996H151.914C151.883 115.27 151.805 115.531 151.68 115.781C151.562 116.023 151.414 116.234 151.234 116.414C151.055 116.594 150.848 116.738 150.613 116.848C150.379 116.949 150.137 117 149.887 117H148.844C148.539 117 148.25 116.922 147.977 116.766C147.703 116.609 147.465 116.398 147.262 116.133C147.059 115.859 146.898 115.543 146.781 115.184C146.664 114.824 146.605 114.438 146.605 114.023V106.734H141.777V117H138.977V98.3672ZM155.16 101.895C154.887 101.895 154.629 101.844 154.387 101.742C154.152 101.641 153.945 101.5 153.766 101.32C153.586 101.141 153.445 100.934 153.344 100.699C153.242 100.457 153.191 100.199 153.191 99.9258C153.191 99.6523 153.242 99.3984 153.344 99.1641C153.445 98.9219 153.586 98.7109 153.766 98.5312C153.945 98.3516 154.152 98.2109 154.387 98.1094C154.629 98 154.887 97.9453 155.16 97.9453C155.434 97.9453 155.688 98 155.922 98.1094C156.164 98.2109 156.375 98.3516 156.555 98.5312C156.734 98.7109 156.875 98.9219 156.977 99.1641C157.086 99.3984 157.141 99.6523 157.141 99.9258C157.141 100.199 157.086 100.457 156.977 100.699C156.875 100.934 156.734 101.141 156.555 101.32C156.375 101.5 156.164 101.641 155.922 101.742C155.68 101.844 155.426 101.895 155.16 101.895ZM153.789 104.73H156.59V114.996H159.098C159.074 115.27 159 115.531 158.875 115.781C158.758 116.023 158.605 116.234 158.418 116.414C158.238 116.594 158.031 116.738 157.797 116.848C157.562 116.949 157.316 117 157.059 117H156.027C155.723 117 155.434 116.922 155.16 116.766C154.887 116.609 154.648 116.398 154.445 116.133C154.242 115.859 154.082 115.543 153.965 115.184C153.848 114.824 153.789 114.438 153.789 114.023V104.73Z" fill="#FF0404"/>
<path d="M0 57.374C7.00372 46.3539 12.7515 34.8914 17.1791 23.114H25.3358C21.0255 34.8629 15.464 46.3212 8.70758 57.374H0ZM52.7174 7.87168L49.8587 15.1414H84.4529L87.3116 7.87168H52.7174ZM26.1752 58.077H35.9317C42.0511 50.1854 46.9035 41.7568 50.3831 32.9744H41.7019C38.0972 41.836 32.8506 50.2559 26.1227 57.9766L26.1752 58.077ZM43.1968 22.4112L40.3117 29.8013H56.8613L47.708 53.197H41.728L38.843 60.5269H54.4221L66.4346 29.8013H82.512L85.4232 22.4112H43.1968ZM35.8531 28.2551L38.7907 20.7644H44.8493L47.7341 13.4144H41.728L44.3508 7.04834H34.3581L31.7354 13.4144H18.7527L15.8677 20.7644H28.9814L13.5072 60.5671H23.2376L32.3647 37.2317L35.8006 39.8223L39.2889 30.9059L35.8531 28.2551ZM67.8506 33.2154C68.1018 41.72 66.579 50.2008 63.3397 58.3381H71.9686C75.2264 50.19 76.9919 41.7351 77.2139 33.2154H67.8506ZM113.303 7.32949H102.681L102.969 20.1619H113.618L113.303 7.32949ZM91.0884 24.1784L88.0196 32.0506H95.3372L84.1906 60.5671L102.996 55.4262L106.432 46.61L98.9304 48.6183L108.503 24.1582L91.0884 24.1784ZM114.929 60.5269L127.912 45.4052H117.421L104.307 60.5269H114.929ZM127.361 9.23728L115.27 40.0833H153.562L165.627 9.23728H127.361ZM146.56 32.392H128.331L134.364 16.9086H152.723L146.665 32.392M136.646 45.3448L137.8 60.4667H148.291L147.111 45.3448H136.646Z" fill="#FF0404"/>
</svg>
