<svg width="87" height="84" viewBox="0 0 87 84" fill="none" xmlns="http://www.w3.org/2000/svg">
<path d="M8.15625 11C3.65332 11 0 14.5273 0 18.875C0 21.3523 1.20645 23.682 3.2625 25.175L40.2375 51.95C42.1746 53.3445 44.8254 53.3445 46.7625 51.95L83.7375 25.175C85.7936 23.682 87 21.3523 87 18.875C87 14.5273 83.3467 11 78.8438 11H8.15625ZM0 29.375V63.5C0 69.2914 4.87676 74 10.875 74H76.125C82.1232 74 87 69.2914 87 63.5V29.375L50.025 56.15C46.1508 58.9555 40.8492 58.9555 36.975 56.15L0 29.375Z" fill="black"/>
</svg>
