<svg width="87" height="123" viewBox="0 0 87 123" fill="none" xmlns="http://www.w3.org/2000/svg">
<g clip-path="url(#clip0_60_94)">
<path d="M48.8695 120.234C60.4922 104.811 87 67.4305 87 46.434C87 20.9692 67.5156 0.309021 43.5 0.309021C19.4844 0.309021 0 20.9692 0 46.434C0 67.4305 26.5078 104.811 38.1305 120.234C40.9172 123.91 46.0828 123.91 48.8695 120.234ZM43.5 31.059C47.3456 31.059 51.0338 32.6789 53.753 35.5623C56.4723 38.4456 58 42.3563 58 46.434C58 50.5117 56.4723 54.4224 53.753 57.3058C51.0338 60.1892 47.3456 61.809 43.5 61.809C39.6544 61.809 35.9662 60.1892 33.247 57.3058C30.5277 54.4224 29 50.5117 29 46.434C29 42.3563 30.5277 38.4456 33.247 35.5623C35.9662 32.6789 39.6544 31.059 43.5 31.059Z" fill="black"/>
</g>
<defs>
<clipPath id="clip0_60_94">
<rect width="87" height="123" fill="white"/>
</clipPath>
</defs>
</svg>
