<svg width="87" height="84" viewBox="0 0 87 84" fill="none" xmlns="http://www.w3.org/2000/svg">
<g clip-path="url(#clip0_60_92)">
<path d="M28.0201 4.03585C26.7117 0.98429 23.2623 -0.639929 19.9658 0.229603L5.0127 4.1671C2.05605 4.9546 0 7.54679 0 10.4999C0 51.089 34.0863 83.9999 76.125 83.9999C79.1836 83.9999 81.8684 82.0148 82.684 79.1601L86.7621 64.7226C87.6627 61.5398 85.9805 58.2093 82.8199 56.946L66.5074 50.3835C63.7377 49.2679 60.5262 50.039 58.64 52.2866L51.7752 60.3749C39.8127 54.9116 30.1271 45.5601 24.4688 34.0101L32.8459 27.3984C35.1738 25.5609 35.9725 22.4765 34.817 19.8023L28.0201 4.05226V4.03585Z" fill="black"/>
</g>
<defs>
<clipPath id="clip0_60_92">
<rect width="87" height="84" fill="white"/>
</clipPath>
</defs>
</svg>
